<?xml version="1.0" encoding="utf-8"?>
<!-- Generator: Adobe Illustrator 25.2.1, SVG Export Plug-In . SVG Version: 6.00 Build 0)  -->
<svg version="1.1" id="Capa_1" xmlns="http://www.w3.org/2000/svg" xmlns:xlink="http://www.w3.org/1999/xlink" x="0px" y="0px"
	 viewBox="0 0 723 167" style="enable-background:new 0 0 723 167;" xml:space="preserve">
<style type="text/css">
	.st0{fill:#062F87;}
	.st1{fill:#ED7422;}
</style>
<g>
	<g>
		<path class="st0" d="M27.2,59.4l9.4-9.7c5.1,4.8,10.5,7.2,16.3,7.2c3.5,0,6-1.5,6-3.9c0-2-1.4-3.1-8.8-6
			c-8.4-3.2-13.7-6.8-13.7-14.6c0-10.5,9.5-17.9,22.4-17.9c9.3,0,16.6,3,21.6,7.8l-9,10.1c-4-3.5-8.6-5.8-14-5.8
			c-3.5,0-5.7,1.7-5.7,3.8s1.6,2.9,8.8,5.7c8.1,3.1,13.7,6.8,13.7,14.7c0,10.9-9.4,18.2-22.5,18.2C41.4,69,32.9,65.5,27.2,59.4z"/>
		<path class="st0" d="M86.9,15.3h14.7l-5.7,21.1l21.8-21.1h18.6l-24.9,23.2l11.8,29.6h-15.8l-7.6-20.4l-9.1,8.4l-3.2,12H72.7
			L86.9,15.3z"/>
		<path class="st0" d="M139.6,47.7L129,15.3h15.8l5.2,19.8l15.9-19.8h17.5l-29.5,33.9l-5.1,18.9h-14.7L139.6,47.7z"/>
		<path class="st0" d="M176.7,15.3h16l2.9,33.2l20.7-33.2h16.5l-35.5,53.2h-13.6L176.7,15.3z"/>
		<path class="st0" d="M233.8,15.3h14.6l-14.2,52.8h-14.6L233.8,15.3z"/>
		<path class="st0" d="M254,15.3h42.3l-3.4,12.4h-27.8l-2.2,8h25.2L285,47.3h-25.2l-2.3,8.4h28.2l-3.3,12.4h-42.7L254,15.3z"/>
		<path class="st0" d="M296,15.3h15.2l1,30.5l18.2-30.7H343l2,30.7l17.3-30.5h15.9l-31.9,53.2h-13.1l-2.4-30l-18.5,30h-13L296,15.3z
			"/>
		<path class="st0" d="M391.4,15.3h16l2.9,33.2L431,15.3h16.5L412,68.5h-13.6L391.4,15.3z"/>
		<path class="st0" d="M448.5,15.3h14.6L449,68.1h-14.6L448.5,15.3z"/>
		<path class="st0" d="M468.7,15.3h19.9c8.8,0,14.6,2,18.2,5.5c2.8,2.8,4.1,6.6,4.1,10.8c0,8.8-5.1,15.8-15.8,18.7l8.1,17.8H487
			l-7-16h-6.5l-4.3,16h-14.7L468.7,15.3z M484.9,40.7c6.6,0,10.9-2.8,10.9-7.3c0-1.4-0.5-2.6-1.4-3.5c-1.2-1.2-3.4-1.8-6.5-1.8H480
			l-3.5,12.7h8.4V40.7z"/>
		<path class="st0" d="M526.3,28.1h-15.8l3.5-12.8h46.2l-3.4,12.8H541l-10.7,40h-14.7L526.3,28.1z"/>
		<path class="st0" d="M553.3,50.6c0-2.6,0.5-5.6,1.2-8.4l7.2-26.8h14.8L569,43.2c-0.5,1.7-0.8,3.2-0.8,5c0,4.8,2.9,7.7,8.2,7.7
			c2.8,0,5.3-1,7.1-2.8c2-1.9,3.3-4.5,4.4-8.7l7.8-29h14.8l-8.4,31.2c-1.9,6.9-4.5,12.1-8.2,15.8c-4.7,4.7-11.3,6.8-19.5,6.8
			C561,69.1,553.3,62.2,553.3,50.6z"/>
		<path class="st0" d="M632,14.9h14.3l8.2,53.2h-15.4l-1.3-9.4h-20.4l-6.3,9.4h-15.9L632,14.9z M636.7,47.3l-1.9-15.2l-9.9,15.2
			H636.7z"/>
		<path class="st0" d="M668.6,15.3h14.7l-10.7,40h25.2l-3.5,12.8h-39.9L668.6,15.3z"/>
	</g>
</g>
<path class="st1" d="M566,75.6C565.9,75.6,565.9,75.6,566,75.6C565.9,75.6,565.9,75.6,566,75.6c-5.8-9.8-17-16.4-30-16.4
	c-10.2,0-19.3,4.1-25.6,10.6c-49,41.6-114.6,67-186.6,67c-64.3,0-123.4-20.2-170.2-54.1c50.2,49.4,121.8,80.3,201.2,80.3
	c44.9,0,87.8-9.3,125.1-27c0.5-0.3,0.9-0.4,0.9-0.4s35.4-14.8,59.4-40.9c0,0-11.5,26.6-47.4,40.4c1.4,0.1,2.8,0.3,4.2,0.4
	c0,0,31.5,5.5,56.9-16.6c3.7-3.5,9.2-9.5,13-17.8l0,0C571.5,90.1,569.2,81.4,566,75.6z"/>
</svg>
